<mxfile host="app.diagrams.net" modified="2023-06-19T18:28:49.381Z" agent="Mozilla/5.0 (Windows NT 10.0; Win64; x64) AppleWebKit/537.36 (KHTML, like Gecko) Chrome/114.0.0.0 Safari/537.36 Edg/114.0.1823.51" etag="qXEhbECjZkXl6NPWHBGC" version="21.5.0" type="device">
  <diagram name="Page-1" id="13e1069c-82ec-6db2-03f1-153e76fe0fe0">
    <mxGraphModel dx="1149" dy="637" grid="1" gridSize="10" guides="1" tooltips="1" connect="1" arrows="1" fold="1" page="1" pageScale="1" pageWidth="1100" pageHeight="850" background="none" math="0" shadow="0">
      <root>
        <mxCell id="0" />
        <mxCell id="1" parent="0" />
        <mxCell id="7baba1c4bc27f4b0-3" value=":Server" style="shape=umlLifeline;perimeter=lifelinePerimeter;whiteSpace=wrap;html=1;container=1;collapsible=0;recursiveResize=0;outlineConnect=0;rounded=1;shadow=0;comic=0;labelBackgroundColor=none;strokeWidth=1;fontFamily=Verdana;fontSize=12;align=center;" parent="1" vertex="1">
          <mxGeometry x="337" y="80" width="100" height="920" as="geometry" />
        </mxCell>
        <mxCell id="7baba1c4bc27f4b0-13" value="" style="html=1;points=[];perimeter=orthogonalPerimeter;rounded=0;shadow=0;comic=0;labelBackgroundColor=none;strokeWidth=1;fontFamily=Verdana;fontSize=12;align=center;" parent="7baba1c4bc27f4b0-3" vertex="1">
          <mxGeometry x="45" y="80" width="10" height="840" as="geometry" />
        </mxCell>
        <mxCell id="7baba1c4bc27f4b0-42" value="The match server object of this match" style="shape=note;whiteSpace=wrap;html=1;size=14;verticalAlign=top;align=left;spacingTop=-6;rounded=0;shadow=0;comic=0;labelBackgroundColor=none;strokeWidth=1;fontFamily=Verdana;fontSize=12" parent="1" vertex="1">
          <mxGeometry x="337" y="20" width="100" height="50" as="geometry" />
        </mxCell>
        <mxCell id="iBCXMxVi8sJkSbhDiFyK-18" value=":Client" style="shape=umlLifeline;perimeter=lifelinePerimeter;whiteSpace=wrap;html=1;container=1;collapsible=0;recursiveResize=0;outlineConnect=0;rounded=1;shadow=0;comic=0;labelBackgroundColor=none;strokeWidth=1;fontFamily=Verdana;fontSize=12;align=center;" parent="1" vertex="1">
          <mxGeometry x="17" y="80" width="100" height="920" as="geometry" />
        </mxCell>
        <mxCell id="iBCXMxVi8sJkSbhDiFyK-19" value="" style="html=1;points=[];perimeter=orthogonalPerimeter;rounded=0;shadow=0;comic=0;labelBackgroundColor=none;strokeWidth=1;fontFamily=Verdana;fontSize=12;align=center;" parent="iBCXMxVi8sJkSbhDiFyK-18" vertex="1">
          <mxGeometry x="45" y="360" width="10" height="560" as="geometry" />
        </mxCell>
        <mxCell id="a03GFce8Cn3U8CY_KLZ7-36" value="MANY UPDATE&lt;br&gt;UI" style="html=1;verticalAlign=bottom;endArrow=doubleBlock;edgeStyle=elbowEdgeStyle;elbow=vertical;curved=0;rounded=0;endFill=1;" edge="1" parent="iBCXMxVi8sJkSbhDiFyK-18">
          <mxGeometry width="80" relative="1" as="geometry">
            <mxPoint x="60" y="720" as="sourcePoint" />
            <mxPoint x="163" y="720" as="targetPoint" />
          </mxGeometry>
        </mxCell>
        <mxCell id="a03GFce8Cn3U8CY_KLZ7-46" value="" style="html=1;verticalAlign=bottom;endArrow=doubleBlock;edgeStyle=elbowEdgeStyle;elbow=vertical;curved=0;rounded=0;endFill=1;" edge="1" parent="iBCXMxVi8sJkSbhDiFyK-18">
          <mxGeometry width="80" relative="1" as="geometry">
            <mxPoint x="55" y="750.33" as="sourcePoint" />
            <mxPoint x="163" y="750" as="targetPoint" />
          </mxGeometry>
        </mxCell>
        <mxCell id="iBCXMxVi8sJkSbhDiFyK-20" value="The Client object of the user" style="shape=note;whiteSpace=wrap;html=1;size=14;verticalAlign=top;align=left;spacingTop=-6;rounded=0;shadow=0;comic=0;labelBackgroundColor=none;strokeWidth=1;fontFamily=Verdana;fontSize=12" parent="1" vertex="1">
          <mxGeometry x="17" y="20" width="100" height="50" as="geometry" />
        </mxCell>
        <mxCell id="a03GFce8Cn3U8CY_KLZ7-1" value=":View" style="shape=umlLifeline;perimeter=lifelinePerimeter;whiteSpace=wrap;html=1;container=1;collapsible=0;recursiveResize=0;outlineConnect=0;rounded=1;shadow=0;comic=0;labelBackgroundColor=none;strokeWidth=1;fontFamily=Verdana;fontSize=12;align=center;" vertex="1" parent="1">
          <mxGeometry x="137" y="80" width="100" height="920" as="geometry" />
        </mxCell>
        <mxCell id="a03GFce8Cn3U8CY_KLZ7-2" value="" style="html=1;points=[];perimeter=orthogonalPerimeter;rounded=0;shadow=0;comic=0;labelBackgroundColor=none;strokeWidth=1;fontFamily=Verdana;fontSize=12;align=center;" vertex="1" parent="a03GFce8Cn3U8CY_KLZ7-1">
          <mxGeometry x="45" y="80" width="10" height="840" as="geometry" />
        </mxCell>
        <mxCell id="a03GFce8Cn3U8CY_KLZ7-5" value="" style="html=1;points=[];perimeter=orthogonalPerimeter;outlineConnect=0;targetShapes=umlLifeline;portConstraint=eastwest;newEdgeStyle={&quot;edgeStyle&quot;:&quot;elbowEdgeStyle&quot;,&quot;elbow&quot;:&quot;vertical&quot;,&quot;curved&quot;:0,&quot;rounded&quot;:0};" vertex="1" parent="a03GFce8Cn3U8CY_KLZ7-1">
          <mxGeometry x="55" y="100" width="10" height="80" as="geometry" />
        </mxCell>
        <mxCell id="a03GFce8Cn3U8CY_KLZ7-6" value="notifyObservers" style="html=1;verticalAlign=bottom;endArrow=block;labelBackgroundColor=none;fontFamily=Verdana;fontSize=12;elbow=vertical;edgeStyle=orthogonalEdgeStyle;curved=1;" edge="1" parent="a03GFce8Cn3U8CY_KLZ7-1">
          <mxGeometry x="-0.0816" y="40" relative="1" as="geometry">
            <mxPoint x="55" y="80" as="sourcePoint" />
            <mxPoint x="65" y="118" as="targetPoint" />
            <Array as="points">
              <mxPoint x="90" y="80" />
              <mxPoint x="90" y="118" />
            </Array>
            <mxPoint as="offset" />
          </mxGeometry>
        </mxCell>
        <mxCell id="a03GFce8Cn3U8CY_KLZ7-7" value="update (client, coords, column)" style="html=1;verticalAlign=bottom;endArrow=block;edgeStyle=elbowEdgeStyle;elbow=vertical;curved=0;rounded=0;" edge="1" parent="a03GFce8Cn3U8CY_KLZ7-1">
          <mxGeometry width="80" relative="1" as="geometry">
            <mxPoint x="70" y="140" as="sourcePoint" />
            <mxPoint x="240" y="140" as="targetPoint" />
          </mxGeometry>
        </mxCell>
        <mxCell id="a03GFce8Cn3U8CY_KLZ7-47" value="" style="html=1;verticalAlign=bottom;endArrow=doubleBlock;edgeStyle=elbowEdgeStyle;elbow=vertical;curved=0;rounded=0;endFill=1;" edge="1" parent="a03GFce8Cn3U8CY_KLZ7-1">
          <mxGeometry width="80" relative="1" as="geometry">
            <mxPoint x="-63" y="780.33" as="sourcePoint" />
            <mxPoint x="45" y="780" as="targetPoint" />
          </mxGeometry>
        </mxCell>
        <mxCell id="a03GFce8Cn3U8CY_KLZ7-48" value="" style="html=1;verticalAlign=bottom;endArrow=doubleBlock;edgeStyle=elbowEdgeStyle;elbow=vertical;curved=0;rounded=0;endFill=1;" edge="1" parent="a03GFce8Cn3U8CY_KLZ7-1">
          <mxGeometry width="80" relative="1" as="geometry">
            <mxPoint x="-63" y="810.33" as="sourcePoint" />
            <mxPoint x="45" y="810" as="targetPoint" />
          </mxGeometry>
        </mxCell>
        <mxCell id="a03GFce8Cn3U8CY_KLZ7-3" value="The Client UI" style="shape=note;whiteSpace=wrap;html=1;size=14;verticalAlign=top;align=left;spacingTop=-6;rounded=0;shadow=0;comic=0;labelBackgroundColor=none;strokeWidth=1;fontFamily=Verdana;fontSize=12" vertex="1" parent="1">
          <mxGeometry x="137" y="20" width="100" height="50" as="geometry" />
        </mxCell>
        <mxCell id="a03GFce8Cn3U8CY_KLZ7-8" value=":Controller" style="shape=umlLifeline;perimeter=lifelinePerimeter;whiteSpace=wrap;html=1;container=1;collapsible=0;recursiveResize=0;outlineConnect=0;rounded=1;shadow=0;comic=0;labelBackgroundColor=none;strokeWidth=1;fontFamily=Verdana;fontSize=12;align=center;" vertex="1" parent="1">
          <mxGeometry x="527" y="80" width="100" height="920" as="geometry" />
        </mxCell>
        <mxCell id="a03GFce8Cn3U8CY_KLZ7-9" value="" style="html=1;points=[];perimeter=orthogonalPerimeter;rounded=0;shadow=0;comic=0;labelBackgroundColor=none;strokeWidth=1;fontFamily=Verdana;fontSize=12;align=center;" vertex="1" parent="a03GFce8Cn3U8CY_KLZ7-8">
          <mxGeometry x="45" y="80" width="10" height="840" as="geometry" />
        </mxCell>
        <mxCell id="a03GFce8Cn3U8CY_KLZ7-11" value="update (client, coords, column)" style="html=1;verticalAlign=bottom;endArrow=block;edgeStyle=elbowEdgeStyle;elbow=vertical;curved=0;rounded=0;" edge="1" parent="a03GFce8Cn3U8CY_KLZ7-8">
          <mxGeometry width="80" relative="1" as="geometry">
            <mxPoint x="-130" y="160" as="sourcePoint" />
            <mxPoint x="40" y="160" as="targetPoint" />
          </mxGeometry>
        </mxCell>
        <mxCell id="a03GFce8Cn3U8CY_KLZ7-12" value="" style="html=1;points=[];perimeter=orthogonalPerimeter;outlineConnect=0;targetShapes=umlLifeline;portConstraint=eastwest;newEdgeStyle={&quot;edgeStyle&quot;:&quot;elbowEdgeStyle&quot;,&quot;elbow&quot;:&quot;vertical&quot;,&quot;curved&quot;:0,&quot;rounded&quot;:0};" vertex="1" parent="a03GFce8Cn3U8CY_KLZ7-8">
          <mxGeometry x="55" y="190" width="10" height="80" as="geometry" />
        </mxCell>
        <mxCell id="a03GFce8Cn3U8CY_KLZ7-13" value="" style="html=1;verticalAlign=bottom;endArrow=block;labelBackgroundColor=none;fontFamily=Verdana;fontSize=12;elbow=vertical;edgeStyle=orthogonalEdgeStyle;curved=1;" edge="1" parent="a03GFce8Cn3U8CY_KLZ7-8" target="a03GFce8Cn3U8CY_KLZ7-12">
          <mxGeometry relative="1" as="geometry">
            <mxPoint x="55" y="170" as="sourcePoint" />
            <mxPoint x="45" y="208" as="targetPoint" />
            <Array as="points">
              <mxPoint x="90" y="170" />
              <mxPoint x="90" y="208" />
            </Array>
          </mxGeometry>
        </mxCell>
        <mxCell id="a03GFce8Cn3U8CY_KLZ7-14" value="" style="html=1;verticalAlign=bottom;endArrow=block;labelBackgroundColor=none;fontFamily=Verdana;fontSize=12;elbow=vertical;edgeStyle=orthogonalEdgeStyle;curved=1;" edge="1" parent="a03GFce8Cn3U8CY_KLZ7-8">
          <mxGeometry relative="1" as="geometry">
            <mxPoint x="65" y="260" as="sourcePoint" />
            <mxPoint x="55" y="298" as="targetPoint" />
            <Array as="points">
              <mxPoint x="85" y="260" />
              <mxPoint x="85" y="298" />
            </Array>
          </mxGeometry>
        </mxCell>
        <mxCell id="a03GFce8Cn3U8CY_KLZ7-19" value="manageTurn(matchID, client)" style="html=1;verticalAlign=bottom;endArrow=block;edgeStyle=elbowEdgeStyle;elbow=vertical;curved=0;rounded=0;" edge="1" parent="a03GFce8Cn3U8CY_KLZ7-8">
          <mxGeometry width="80" relative="1" as="geometry">
            <mxPoint x="55" y="320" as="sourcePoint" />
            <mxPoint x="210" y="320" as="targetPoint" />
          </mxGeometry>
        </mxCell>
        <mxCell id="a03GFce8Cn3U8CY_KLZ7-10" value="The game controller on server side" style="shape=note;whiteSpace=wrap;html=1;size=14;verticalAlign=top;align=left;spacingTop=-6;rounded=0;shadow=0;comic=0;labelBackgroundColor=none;strokeWidth=1;fontFamily=Verdana;fontSize=12" vertex="1" parent="1">
          <mxGeometry x="527" y="20" width="100" height="50" as="geometry" />
        </mxCell>
        <mxCell id="a03GFce8Cn3U8CY_KLZ7-16" value=":TurnHandler" style="shape=umlLifeline;perimeter=lifelinePerimeter;whiteSpace=wrap;html=1;container=1;collapsible=0;recursiveResize=0;outlineConnect=0;rounded=1;shadow=0;comic=0;labelBackgroundColor=none;strokeWidth=1;fontFamily=Verdana;fontSize=12;align=center;" vertex="1" parent="1">
          <mxGeometry x="697" y="80" width="100" height="880" as="geometry" />
        </mxCell>
        <mxCell id="a03GFce8Cn3U8CY_KLZ7-17" value="" style="html=1;points=[];perimeter=orthogonalPerimeter;rounded=0;shadow=0;comic=0;labelBackgroundColor=none;strokeWidth=1;fontFamily=Verdana;fontSize=12;align=center;" vertex="1" parent="a03GFce8Cn3U8CY_KLZ7-16">
          <mxGeometry x="45" y="80" width="10" height="800" as="geometry" />
        </mxCell>
        <mxCell id="a03GFce8Cn3U8CY_KLZ7-20" value="" style="html=1;points=[];perimeter=orthogonalPerimeter;outlineConnect=0;targetShapes=umlLifeline;portConstraint=eastwest;newEdgeStyle={&quot;edgeStyle&quot;:&quot;elbowEdgeStyle&quot;,&quot;elbow&quot;:&quot;vertical&quot;,&quot;curved&quot;:0,&quot;rounded&quot;:0};" vertex="1" parent="a03GFce8Cn3U8CY_KLZ7-16">
          <mxGeometry x="55" y="350" width="10" height="470" as="geometry" />
        </mxCell>
        <mxCell id="a03GFce8Cn3U8CY_KLZ7-21" value="" style="html=1;verticalAlign=bottom;endArrow=block;labelBackgroundColor=none;fontFamily=Verdana;fontSize=12;elbow=vertical;edgeStyle=orthogonalEdgeStyle;curved=1;" edge="1" parent="a03GFce8Cn3U8CY_KLZ7-16" target="a03GFce8Cn3U8CY_KLZ7-20">
          <mxGeometry relative="1" as="geometry">
            <mxPoint x="55" y="330" as="sourcePoint" />
            <mxPoint x="45" y="368" as="targetPoint" />
            <Array as="points">
              <mxPoint x="90" y="330" />
              <mxPoint x="90" y="368" />
            </Array>
          </mxGeometry>
        </mxCell>
        <mxCell id="a03GFce8Cn3U8CY_KLZ7-43" value="" style="html=1;verticalAlign=bottom;endArrow=block;labelBackgroundColor=none;fontFamily=Verdana;fontSize=12;elbow=vertical;edgeStyle=orthogonalEdgeStyle;curved=1;" edge="1" parent="a03GFce8Cn3U8CY_KLZ7-16">
          <mxGeometry relative="1" as="geometry">
            <mxPoint x="75" y="802" as="sourcePoint" />
            <mxPoint x="65" y="840" as="targetPoint" />
            <Array as="points">
              <mxPoint x="95" y="802" />
              <mxPoint x="95" y="840" />
            </Array>
          </mxGeometry>
        </mxCell>
        <mxCell id="a03GFce8Cn3U8CY_KLZ7-44" value="return" style="html=1;verticalAlign=bottom;endArrow=open;dashed=1;endSize=8;edgeStyle=elbowEdgeStyle;elbow=vertical;curved=0;rounded=0;" edge="1" parent="a03GFce8Cn3U8CY_KLZ7-16">
          <mxGeometry relative="1" as="geometry">
            <mxPoint x="55" y="880" as="sourcePoint" />
            <mxPoint x="-110" y="880" as="targetPoint" />
            <Array as="points">
              <mxPoint x="-15" y="880" />
            </Array>
          </mxGeometry>
        </mxCell>
        <mxCell id="a03GFce8Cn3U8CY_KLZ7-18" value="The TurnHandler of this game controller" style="shape=note;whiteSpace=wrap;html=1;size=14;verticalAlign=top;align=left;spacingTop=-6;rounded=0;shadow=0;comic=0;labelBackgroundColor=none;strokeWidth=1;fontFamily=Verdana;fontSize=12" vertex="1" parent="1">
          <mxGeometry x="697" y="10" width="100" height="60" as="geometry" />
        </mxCell>
        <mxCell id="a03GFce8Cn3U8CY_KLZ7-22" value="nextTurn(matchID, player)" style="html=1;verticalAlign=bottom;endArrow=block;labelBackgroundColor=none;fontFamily=Verdana;fontSize=12;elbow=vertical;edgeStyle=orthogonalEdgeStyle;curved=1;" edge="1" parent="1">
          <mxGeometry x="-0.1474" y="85" relative="1" as="geometry">
            <mxPoint x="767" y="480" as="sourcePoint" />
            <mxPoint x="767" y="520" as="targetPoint" />
            <Array as="points">
              <mxPoint x="812" y="481" />
              <mxPoint x="812" y="519" />
            </Array>
            <mxPoint as="offset" />
          </mxGeometry>
        </mxCell>
        <mxCell id="a03GFce8Cn3U8CY_KLZ7-24" value="saveModelAndSetNewPlayer&lt;br&gt;(matchID, player)" style="html=1;verticalAlign=bottom;endArrow=block;labelBackgroundColor=none;fontFamily=Verdana;fontSize=12;elbow=vertical;edgeStyle=orthogonalEdgeStyle;curved=1;" edge="1" parent="1">
          <mxGeometry x="0.0924" y="95" relative="1" as="geometry">
            <mxPoint x="767" y="530" as="sourcePoint" />
            <mxPoint x="767" y="569" as="targetPoint" />
            <Array as="points">
              <mxPoint x="767" y="531" />
              <mxPoint x="812" y="531" />
              <mxPoint x="812" y="569" />
            </Array>
            <mxPoint as="offset" />
          </mxGeometry>
        </mxCell>
        <mxCell id="a03GFce8Cn3U8CY_KLZ7-25" value=":Game" style="shape=umlLifeline;perimeter=lifelinePerimeter;whiteSpace=wrap;html=1;container=1;collapsible=0;recursiveResize=0;outlineConnect=0;rounded=1;shadow=0;comic=0;labelBackgroundColor=none;strokeWidth=1;fontFamily=Verdana;fontSize=12;align=center;" vertex="1" parent="1">
          <mxGeometry x="967" y="80" width="100" height="800" as="geometry" />
        </mxCell>
        <mxCell id="a03GFce8Cn3U8CY_KLZ7-26" value="" style="html=1;points=[];perimeter=orthogonalPerimeter;rounded=0;shadow=0;comic=0;labelBackgroundColor=none;strokeWidth=1;fontFamily=Verdana;fontSize=12;align=center;" vertex="1" parent="a03GFce8Cn3U8CY_KLZ7-25">
          <mxGeometry x="45" y="80" width="10" height="720" as="geometry" />
        </mxCell>
        <mxCell id="a03GFce8Cn3U8CY_KLZ7-29" value="" style="html=1;points=[];perimeter=orthogonalPerimeter;outlineConnect=0;targetShapes=umlLifeline;portConstraint=eastwest;newEdgeStyle={&quot;edgeStyle&quot;:&quot;elbowEdgeStyle&quot;,&quot;elbow&quot;:&quot;vertical&quot;,&quot;curved&quot;:0,&quot;rounded&quot;:0};" vertex="1" parent="a03GFce8Cn3U8CY_KLZ7-25">
          <mxGeometry x="55" y="540" width="10" height="210" as="geometry" />
        </mxCell>
        <mxCell id="a03GFce8Cn3U8CY_KLZ7-30" value="setChangeAndNotifyListener(this)" style="html=1;verticalAlign=bottom;endArrow=block;labelBackgroundColor=none;fontFamily=Verdana;fontSize=12;elbow=vertical;edgeStyle=orthogonalEdgeStyle;curved=1;" edge="1" parent="a03GFce8Cn3U8CY_KLZ7-25" target="a03GFce8Cn3U8CY_KLZ7-29">
          <mxGeometry x="-0.0816" y="100" relative="1" as="geometry">
            <mxPoint x="55" y="520" as="sourcePoint" />
            <mxPoint x="45" y="558" as="targetPoint" />
            <Array as="points">
              <mxPoint x="90" y="520" />
              <mxPoint x="90" y="558" />
            </Array>
            <mxPoint as="offset" />
          </mxGeometry>
        </mxCell>
        <mxCell id="a03GFce8Cn3U8CY_KLZ7-33" value="" style="html=1;points=[];perimeter=orthogonalPerimeter;outlineConnect=0;targetShapes=umlLifeline;portConstraint=eastwest;newEdgeStyle={&quot;edgeStyle&quot;:&quot;elbowEdgeStyle&quot;,&quot;elbow&quot;:&quot;vertical&quot;,&quot;curved&quot;:0,&quot;rounded&quot;:0};" vertex="1" parent="a03GFce8Cn3U8CY_KLZ7-25">
          <mxGeometry x="65" y="640" width="10" height="60" as="geometry" />
        </mxCell>
        <mxCell id="a03GFce8Cn3U8CY_KLZ7-35" value="update((gameView)" style="html=1;verticalAlign=bottom;endArrow=block;edgeStyle=elbowEdgeStyle;elbow=vertical;curved=0;rounded=0;" edge="1" parent="a03GFce8Cn3U8CY_KLZ7-25">
          <mxGeometry x="-0.6373" width="80" relative="1" as="geometry">
            <mxPoint x="75" y="680" as="sourcePoint" />
            <mxPoint x="-890" y="680" as="targetPoint" />
            <mxPoint as="offset" />
          </mxGeometry>
        </mxCell>
        <mxCell id="a03GFce8Cn3U8CY_KLZ7-40" value="" style="html=1;verticalAlign=bottom;endArrow=block;labelBackgroundColor=none;fontFamily=Verdana;fontSize=12;elbow=vertical;edgeStyle=orthogonalEdgeStyle;curved=1;" edge="1" parent="a03GFce8Cn3U8CY_KLZ7-25">
          <mxGeometry relative="1" as="geometry">
            <mxPoint x="75" y="690" as="sourcePoint" />
            <mxPoint x="65" y="728" as="targetPoint" />
            <Array as="points">
              <mxPoint x="95" y="690" />
              <mxPoint x="95" y="728" />
            </Array>
          </mxGeometry>
        </mxCell>
        <mxCell id="a03GFce8Cn3U8CY_KLZ7-41" value="" style="html=1;verticalAlign=bottom;endArrow=block;labelBackgroundColor=none;fontFamily=Verdana;fontSize=12;elbow=vertical;edgeStyle=orthogonalEdgeStyle;curved=1;" edge="1" parent="a03GFce8Cn3U8CY_KLZ7-25">
          <mxGeometry relative="1" as="geometry">
            <mxPoint x="65" y="740" as="sourcePoint" />
            <mxPoint x="55" y="778" as="targetPoint" />
            <Array as="points">
              <mxPoint x="85" y="740" />
              <mxPoint x="85" y="778" />
            </Array>
          </mxGeometry>
        </mxCell>
        <mxCell id="a03GFce8Cn3U8CY_KLZ7-27" value="The Game Model" style="shape=note;whiteSpace=wrap;html=1;size=14;verticalAlign=top;align=left;spacingTop=-6;rounded=0;shadow=0;comic=0;labelBackgroundColor=none;strokeWidth=1;fontFamily=Verdana;fontSize=12" vertex="1" parent="1">
          <mxGeometry x="967" y="20" width="100" height="50" as="geometry" />
        </mxCell>
        <mxCell id="a03GFce8Cn3U8CY_KLZ7-28" value="setAndSave(matchID, player)" style="html=1;verticalAlign=bottom;endArrow=block;edgeStyle=elbowEdgeStyle;elbow=vertical;curved=0;rounded=0;" edge="1" parent="1">
          <mxGeometry width="80" relative="1" as="geometry">
            <mxPoint x="767" y="590" as="sourcePoint" />
            <mxPoint x="1007" y="590" as="targetPoint" />
          </mxGeometry>
        </mxCell>
        <mxCell id="a03GFce8Cn3U8CY_KLZ7-32" value="notifyObservers" style="html=1;verticalAlign=bottom;endArrow=block;labelBackgroundColor=none;fontFamily=Verdana;fontSize=12;elbow=vertical;edgeStyle=orthogonalEdgeStyle;curved=1;" edge="1" parent="1">
          <mxGeometry x="0.0924" y="95" relative="1" as="geometry">
            <mxPoint x="1037" y="650" as="sourcePoint" />
            <mxPoint x="1037" y="689" as="targetPoint" />
            <Array as="points">
              <mxPoint x="1037" y="651" />
              <mxPoint x="1082" y="651" />
              <mxPoint x="1082" y="689" />
            </Array>
            <mxPoint as="offset" />
          </mxGeometry>
        </mxCell>
        <mxCell id="a03GFce8Cn3U8CY_KLZ7-34" value="" style="html=1;verticalAlign=bottom;endArrow=block;labelBackgroundColor=none;fontFamily=Verdana;fontSize=12;elbow=vertical;edgeStyle=orthogonalEdgeStyle;curved=1;" edge="1" parent="1">
          <mxGeometry relative="1" as="geometry">
            <mxPoint x="1037" y="690" as="sourcePoint" />
            <mxPoint x="1047" y="728" as="targetPoint" />
            <Array as="points">
              <mxPoint x="1072" y="690" />
              <mxPoint x="1072" y="728" />
            </Array>
          </mxGeometry>
        </mxCell>
        <mxCell id="a03GFce8Cn3U8CY_KLZ7-42" value="return" style="html=1;verticalAlign=bottom;endArrow=open;dashed=1;endSize=8;edgeStyle=elbowEdgeStyle;elbow=vertical;curved=0;rounded=0;" edge="1" parent="1" source="a03GFce8Cn3U8CY_KLZ7-25">
          <mxGeometry relative="1" as="geometry">
            <mxPoint x="997" y="880" as="sourcePoint" />
            <mxPoint x="767" y="880" as="targetPoint" />
            <Array as="points">
              <mxPoint x="947" y="880" />
            </Array>
          </mxGeometry>
        </mxCell>
        <mxCell id="a03GFce8Cn3U8CY_KLZ7-45" value="return" style="html=1;verticalAlign=bottom;endArrow=open;dashed=1;endSize=8;edgeStyle=elbowEdgeStyle;elbow=vertical;curved=0;rounded=0;" edge="1" parent="1" target="7baba1c4bc27f4b0-3">
          <mxGeometry relative="1" as="geometry">
            <mxPoint x="570" y="1000" as="sourcePoint" />
            <mxPoint x="405" y="1000" as="targetPoint" />
            <Array as="points">
              <mxPoint x="500" y="1000" />
            </Array>
          </mxGeometry>
        </mxCell>
        <mxCell id="a03GFce8Cn3U8CY_KLZ7-49" value="Change the game model following the update information" style="shape=note;whiteSpace=wrap;html=1;size=5;verticalAlign=top;align=left;spacingTop=-6;rounded=0;shadow=0;comic=0;labelBackgroundColor=none;strokeWidth=1;fontFamily=Verdana;fontSize=12" vertex="1" parent="1">
          <mxGeometry x="620" y="290" width="110" height="60" as="geometry" />
        </mxCell>
        <mxCell id="a03GFce8Cn3U8CY_KLZ7-51" style="edgeStyle=elbowEdgeStyle;rounded=0;orthogonalLoop=1;jettySize=auto;html=1;elbow=vertical;curved=0;dashed=1;dashPattern=1 1;endArrow=none;endFill=0;" edge="1" parent="1" source="a03GFce8Cn3U8CY_KLZ7-12" target="a03GFce8Cn3U8CY_KLZ7-49">
          <mxGeometry relative="1" as="geometry" />
        </mxCell>
        <mxCell id="a03GFce8Cn3U8CY_KLZ7-52" value="In a new thread&amp;nbsp;&lt;br&gt;foreach client listed as observer" style="shape=note;whiteSpace=wrap;html=1;size=5;verticalAlign=top;align=left;spacingTop=-6;rounded=0;shadow=0;comic=0;labelBackgroundColor=none;strokeWidth=1;fontFamily=Verdana;fontSize=12" vertex="1" parent="1">
          <mxGeometry x="1080" y="730" width="110" height="60" as="geometry" />
        </mxCell>
        <mxCell id="a03GFce8Cn3U8CY_KLZ7-53" style="edgeStyle=elbowEdgeStyle;rounded=0;orthogonalLoop=1;jettySize=auto;html=1;elbow=vertical;curved=0;entryX=-0.021;entryY=0.369;entryDx=0;entryDy=0;entryPerimeter=0;dashed=1;dashPattern=1 1;endArrow=none;endFill=0;" edge="1" parent="1" source="a03GFce8Cn3U8CY_KLZ7-33" target="a03GFce8Cn3U8CY_KLZ7-52">
          <mxGeometry relative="1" as="geometry" />
        </mxCell>
      </root>
    </mxGraphModel>
  </diagram>
</mxfile>
